# xmcd
#
# Track frame offsets:
#	150
#	17263
#	31039
#	44468
#	57852
#	72567
#	84459
#	101760
#	114917
#	132215
#	146096
#	160791
#	173993
#	186726
#
# Disc length: 2701 seconds
#
# Revision: 1
# Processed by: cddbd v1.5.2PL0 Copyright (c) Steve Scherf et al.
# Submitted via: audiograbber 1.83.01
#
DISCID=bd0a8b0e
DTITLE=Truck Stop - Das große Jubiläum - 08 - Uwe... Ich singe für euch!
DYEAR=2018
DGENRE=Country
TTITLE0=Freiheit um die Nase
TTITLE1=Cisco Dance
TTITLE2=Im Studio in Maschen
TTITLE3=Wer hat die guten Zeiten abgeschafft
TTITLE4=Du bist so süß, wenn du Recht hast
TTITLE5=Nachbarn
TTITLE6=Wäre, würde, hätte
TTITLE7=Ohne dich steh ich im Regen
TTITLE8=Grand Canyon
TTITLE9=Wer hat John O'Brian gekillt - Fortsetzung!
TTITLE10=When I Die, Just Let Me Go To Texas
TTITLE11=Schönen guten Morgen
TTITLE12=300 Jahre (Neu)
TTITLE13=Spuren deiner Liebe
EXTD=
EXTT0=
EXTT1=
EXTT2=
EXTT3=
EXTT4=
EXTT5=
EXTT6=
EXTT7=
EXTT8=
EXTT9=
EXTT10=
EXTT11=
EXTT12=
EXTT13=
PLAYORDER=
